<svg width="30" height="30" viewBox="0 0 30 30" fill="none" xmlns="http://www.w3.org/2000/svg">
<path fill-rule="evenodd" clip-rule="evenodd" d="M18.9396 10.4938C18.9396 8.191 17.0728 6.32422 14.77 6.32422C12.4673 6.32422 10.6005 8.191 10.6005 10.4938C10.6005 12.7966 12.4673 14.6633 14.77 14.6633H13.9361C9.79111 14.6633 6.43091 18.0235 6.43091 22.1686C6.43091 22.6291 6.80426 23.0025 7.26482 23.0025H22.2753C22.7358 23.0025 23.1092 22.6291 23.1092 22.1686C23.1092 18.0235 19.749 14.6633 15.604 14.6633H14.77C15.8759 14.6633 16.9364 14.2241 17.7184 13.4421C18.5003 12.6602 18.9396 11.5996 18.9396 10.4938ZM13.9361 16.3312C11.0338 16.3304 8.57173 18.4621 8.15711 21.3347H21.383C20.9683 18.4621 18.5063 16.3304 15.604 16.3312H13.9361ZM12.2683 10.4938C12.2683 11.8755 13.3884 12.9955 14.77 12.9955C15.4335 12.9955 16.0699 12.7319 16.539 12.2628C17.0082 11.7936 17.2718 11.1573 17.2718 10.4938C17.2718 9.11211 16.1517 7.99204 14.77 7.99204C13.3884 7.99204 12.2683 9.11211 12.2683 10.4938Z" fill="black"/>
<path fill-rule="evenodd" clip-rule="evenodd" d="M6.37872 2.67585H23.1612C25.1474 2.67585 26.7575 4.28594 26.7575 6.2721V23.0546C26.7575 25.0408 25.1474 26.6508 23.1612 26.6508H6.37872C4.39257 26.6508 2.78247 25.0408 2.78247 23.0546V6.2721C2.78247 4.28594 4.39257 2.67585 6.37872 2.67585ZM23.1612 24.2534C23.8232 24.2534 24.3599 23.7167 24.3599 23.0546V6.2721C24.3599 5.61005 23.8232 5.07335 23.1612 5.07335H6.3787C5.71665 5.07335 5.17995 5.61005 5.17995 6.2721V23.0546C5.17995 23.7167 5.71665 24.2534 6.3787 24.2534H23.1612Z" fill="black"/>
</svg>
