<svg width="29" height="30" viewBox="0 0 29 30" fill="none" xmlns="http://www.w3.org/2000/svg">
<path fill-rule="evenodd" clip-rule="evenodd" d="M25.1699 15.0041C25.1756 14.9203 25.1756 14.8362 25.1699 14.7524V6.09873C25.1306 4.22338 23.5815 2.73327 21.706 2.76671H5.86096C3.98549 2.73327 2.43643 4.22338 2.39709 6.09873V21.0089C2.43643 22.8843 3.98549 24.3744 5.86096 24.3409H13.1842C13.252 24.3467 13.3202 24.3467 13.388 24.3409C15.9663 27.5944 20.6939 28.1418 23.9473 25.5635C27.2008 22.9852 27.7482 18.2576 25.1699 15.0041ZM5.86103 21.9438C5.31349 21.9652 4.84486 21.5545 4.79431 21.0089V6.09873C4.84486 5.5531 5.31349 5.14239 5.86103 5.16385H21.7061C22.2536 5.14239 22.7223 5.5531 22.7728 6.09873V12.9785C20.4525 11.7089 17.6346 11.7571 15.3589 13.1052C13.0833 14.4534 11.6873 16.9017 11.6861 19.5467C11.6879 20.3618 11.8214 21.1713 12.0816 21.9438H5.86103ZM14.0832 19.5467C14.0832 22.3599 16.3638 24.6406 19.1771 24.6406C21.9877 24.634 24.2644 22.3572 24.271 19.5467C24.271 16.7334 21.9904 14.4527 19.1771 14.4527C16.3638 14.4527 14.0832 16.7334 14.0832 19.5467ZM19.1771 9.95812H8.38997C7.72802 9.95812 7.19141 9.4215 7.19141 8.75955C7.19141 8.0976 7.72802 7.56098 8.38997 7.56098H19.1771C19.839 7.56098 20.3757 8.0976 20.3757 8.75955C20.3757 9.4215 19.839 9.95812 19.1771 9.95812ZM21.5812 20.7452C21.5812 20.4256 21.4536 20.1193 21.2267 19.8942L20.3757 19.0552V17.1495C20.3757 16.4876 19.8391 15.951 19.1771 15.951C18.5152 15.951 17.9785 16.4876 17.9785 17.1495V19.5467C17.9767 19.8652 18.1018 20.1714 18.3261 20.3976L19.5247 21.5962C19.7497 21.8231 20.0561 21.9507 20.3757 21.9507C20.6953 21.9507 21.0016 21.8231 21.2267 21.5962C21.4536 21.3712 21.5812 21.0648 21.5812 20.7452Z" fill="black"/>
</svg>
