<svg width="25" height="25" viewBox="0 0 25 25" fill="none" xmlns="http://www.w3.org/2000/svg">
<path fill-rule="evenodd" clip-rule="evenodd" d="M21.21 17.6633H20.27V10.6633C20.27 6.24505 16.6883 2.66333 12.27 2.66333C7.85173 2.66333 4.27 6.24505 4.27 10.6633V17.6633H3.38C2.82772 17.6633 2.38 18.111 2.38 18.6633C2.38 19.2156 2.82772 19.6633 3.38 19.6633H9.27C9.27 21.3202 10.6132 22.6633 12.27 22.6633C13.9269 22.6633 15.27 21.3202 15.27 19.6633H21.21C21.7623 19.6633 22.21 19.2156 22.21 18.6633C22.21 18.111 21.7623 17.6633 21.21 17.6633ZM12.27 20.6633C11.7177 20.6633 11.27 20.2156 11.27 19.6633H13.27C13.27 20.2156 12.8223 20.6633 12.27 20.6633ZM6.27 17.6633H14.27H18.27V10.6633C18.27 7.34962 15.5837 4.66333 12.27 4.66333C8.9563 4.66333 6.27 7.34962 6.27 10.6633V17.6633Z" fill="#231F20"/>
</svg>
