<svg width="42" height="42" viewBox="0 0 42 42" fill="none" xmlns="http://www.w3.org/2000/svg">
<path fill-rule="evenodd" clip-rule="evenodd" d="M36.8878 19.0495L6.02451 3.61787C5.4039 3.29765 4.6511 3.38582 4.12128 3.84077C3.59364 4.29902 3.39691 5.03165 3.62403 5.69257L8.68218 20.5755L3.70977 35.4585C3.53685 35.9685 3.61356 36.53 3.91692 36.975C4.22028 37.4199 4.71503 37.6965 5.25293 37.7218C5.52134 37.7202 5.78563 37.6556 6.02451 37.5332L36.8878 22.1015C37.4604 21.8082 37.8206 21.2189 37.8206 20.5755C37.8206 19.9321 37.4604 19.3429 36.8878 19.0495ZM8.18496 32.5779L11.6142 22.2901H28.7605L8.18496 32.5779ZM8.18496 8.57314L11.6142 18.8609H28.8462L8.18496 8.57314Z" fill="black"/>
</svg>
