<svg width="30" height="30" viewBox="0 0 30 30" fill="none" xmlns="http://www.w3.org/2000/svg">
<path fill-rule="evenodd" clip-rule="evenodd" d="M26.3154 11.199L24.745 10.6835L25.4882 9.22101C25.7245 8.7596 25.6375 8.19856 25.2724 7.83046L21.9879 4.5339C21.6198 4.16886 21.0587 4.08181 20.5973 4.31813L19.1348 5.07334L18.6194 3.51496C18.4523 3.00029 17.9611 2.66138 17.4206 2.68783H12.8294C12.289 2.66138 11.7978 3.00029 11.6307 3.51496L11.1751 5.07334L9.71267 4.31813C9.25126 4.08181 8.69022 4.16886 8.32212 4.5339L5.02556 7.83046C4.66052 8.19856 4.57347 8.7596 4.80978 9.22101L5.565 10.6835L4.00662 11.199C3.49195 11.366 3.15304 11.8572 3.17948 12.3977V17.0489C3.15304 17.5893 3.49195 18.0805 4.00662 18.2476L5.565 18.7631L4.82177 20.2255C4.58545 20.687 4.67251 21.248 5.03755 21.6161L8.32212 24.7928C8.69022 25.1578 9.25126 25.2449 9.71267 25.0086L11.1751 24.2533L11.6906 25.8117C11.8577 26.3264 12.3489 26.6653 12.8894 26.6389H17.5405C18.081 26.6653 18.5722 26.3264 18.7393 25.8117L19.2547 24.2533L20.7172 24.9966C21.1786 25.2329 21.7396 25.1458 22.1077 24.7808L25.4043 21.4842C25.7693 21.1161 25.8564 20.5551 25.6201 20.0937L24.745 18.6432L26.3034 18.1277C26.818 17.9606 27.157 17.4694 27.1305 16.929V12.3378C27.1318 11.8224 26.8036 11.3639 26.3154 11.199ZM9.16125 14.6633C9.16125 11.3531 11.8447 8.66959 15.155 8.66959C16.7446 8.66959 18.2692 9.30107 19.3932 10.4251C20.5173 11.5492 21.1487 13.0737 21.1487 14.6633C21.1487 17.9736 18.4653 20.6571 15.155 20.6571C11.8447 20.6571 9.16125 17.9736 9.16125 14.6633ZM11.5587 14.6633C11.5587 16.6495 13.1688 18.2596 15.155 18.2596C16.1088 18.2596 17.0235 17.8807 17.6979 17.2063C18.3724 16.5318 18.7512 15.6171 18.7512 14.6633C18.7512 12.6772 17.1412 11.0671 15.155 11.0671C13.1688 11.0671 11.5587 12.6772 11.5587 14.6633ZM24.0138 16.3656L24.745 16.1258V13.2009L24.0138 12.9611C23.3482 12.7462 22.8097 12.2515 22.5393 11.6065C22.2737 10.959 22.3044 10.2277 22.6232 9.60461L22.9708 8.90934L20.909 6.84749L20.2137 7.19513C19.5906 7.50933 18.8614 7.53641 18.2167 7.2693C17.572 7.00219 17.0756 6.46741 16.8572 5.80458L16.6175 5.07334H13.6925L13.4528 5.80458C13.2344 6.46741 12.738 7.00219 12.0933 7.2693C11.4486 7.53641 10.7194 7.50933 10.0963 7.19513L9.401 6.84749L7.33915 8.90934L7.68678 9.60461C8.00563 10.2277 8.03628 10.959 7.7707 11.6065C7.5003 12.2515 6.96177 12.7462 6.29623 12.9611L5.565 13.2009V16.1258L6.29623 16.3656C6.96177 16.5804 7.5003 17.0752 7.7707 17.7201C8.03628 18.3677 8.00563 19.099 7.68678 19.7221L7.33915 20.4173L9.401 22.4792L10.0963 22.1315C10.7194 21.8174 11.4486 21.7903 12.0933 22.0574C12.738 22.3245 13.2344 22.8593 13.4528 23.5221L13.6925 24.2533H16.6175L16.8572 23.5221C17.0756 22.8593 17.572 22.3245 18.2167 22.0574C18.8614 21.7903 19.5906 21.8174 20.2137 22.1315L20.909 22.4792L22.9708 20.4173L22.6232 19.7221C22.3044 19.099 22.2737 18.3677 22.5393 17.7201C22.8097 17.0752 23.3482 16.5804 24.0138 16.3656Z" fill="black"/>
</svg>
