<svg width="29" height="30" viewBox="0 0 29 30" fill="none" xmlns="http://www.w3.org/2000/svg">
<path fill-rule="evenodd" clip-rule="evenodd" d="M5.99371 2.67585H22.7762C24.7624 2.67585 26.3725 4.28594 26.3725 6.2721V14.4236C26.362 18.6753 23.8554 22.5243 19.9711 24.2533L14.8764 26.507C14.5639 26.6475 14.2061 26.6475 13.8935 26.507L8.79879 24.2533C4.91453 22.5243 2.40795 18.6753 2.39746 14.4236V6.2721C2.39746 4.28594 4.00756 2.67585 5.99371 2.67585ZM18.9882 22.0956C22.0212 20.7493 23.9759 17.742 23.975 14.4236V6.2721C23.975 5.61004 23.4383 5.07335 22.7762 5.07335H5.99371C5.33166 5.07335 4.79496 5.61004 4.79496 6.2721V14.4236C4.79401 17.742 6.74873 20.7493 9.78176 22.0956L14.385 24.1455L18.9882 22.0956ZM19.3598 11.151L16.6866 10.7434L15.4878 8.16612C15.2931 7.7387 14.8666 7.46438 14.3969 7.46438C13.9273 7.46438 13.5008 7.7387 13.3061 8.16612L12.1073 10.7434L9.43412 11.151C8.9923 11.2191 8.62505 11.5273 8.48142 11.9506C8.33779 12.374 8.44164 12.842 8.75084 13.1649L10.7288 15.1908L10.2613 18.0678C10.2068 18.5133 10.4058 18.9519 10.7769 19.2044C11.148 19.4568 11.629 19.4808 12.0234 19.2665L14.4209 17.9479L16.8184 19.2665C16.9951 19.3619 17.193 19.4114 17.3938 19.4104C17.748 19.415 18.086 19.2627 18.3172 18.9945C18.5485 18.7262 18.6493 18.3694 18.5926 18.0198L18.1251 15.1428L20.103 13.117C20.4122 12.7941 20.516 12.326 20.3724 11.9027C20.2288 11.4794 19.8615 11.1711 19.4197 11.1031L19.3598 11.151ZM15.5957 14.987C15.5338 14.6115 15.6539 14.2289 15.9194 13.9561L16.6866 13.1649L15.6796 13.0091C15.2872 12.948 14.9506 12.6966 14.7805 12.3378L14.385 11.4867L13.9414 12.3378C13.7714 12.6966 13.4347 12.948 13.0424 13.0091L12.0354 13.1649L12.8026 13.9561C13.068 14.2289 13.1882 14.6115 13.1263 14.987L12.9584 16.0179L13.7616 15.5744C14.1325 15.3603 14.5895 15.3603 14.9604 15.5744L15.7635 16.0179L15.5957 14.987Z" fill="black"/>
</svg>
